<svg xmlns="http://www.w3.org/2000/svg" version="1.1" xmlns:xlink="http://www.w3.org/1999/xlink" xmlns:svgjs="http://svgjs.dev/svgjs" width="1000" height="1000" viewBox="0 0 1000 1000"><g transform="matrix(1,0,0,1,0.44461077844323427,0.4446107784431774)"><svg viewBox="0 0 334 334" data-background-color="#1ebbd7" preserveAspectRatio="xMidYMid meet" height="1000" width="1000" xmlns="http://www.w3.org/2000/svg" xmlns:xlink="http://www.w3.org/1999/xlink"><g id="tight-bounds" transform="matrix(1,0,0,1,-0.14850000000004115,-0.14850000000001273)"><svg viewBox="0 0 334.2969054100327 334.2969054100327" height="334.2969054100327" width="334.2969054100327"><g><svg></svg></g><g><svg viewBox="0 0 334.2969054100327 334.2969054100327" height="334.2969054100327" width="334.2969054100327"><g><path d="M0 167.148c0-92.314 74.835-167.148 167.148-167.148 92.314 0 167.148 74.835 167.149 167.148 0 92.314-74.835 167.148-167.149 167.149-92.314 0-167.148-74.835-167.148-167.149zM167.148 330.157c90.027 0 163.008-72.981 163.009-163.009 0-90.027-72.981-163.008-163.009-163.008-90.027 0-163.008 72.981-163.008 163.008 0 90.027 72.981 163.008 163.008 163.009z" data-fill-palette-color="tertiary" fill="#010c80" stroke="transparent"></path><ellipse rx="160.46251459681568" ry="160.46251459681568" cx="167.14845270501635" cy="167.14845270501635" fill="#010c80" stroke="transparent" stroke-width="0" fill-opacity="1" data-fill-palette-color="tertiary"></ellipse></g><g transform="matrix(1,0,0,1,63.59375870302189,71.3692320914378)"><svg viewBox="0 0 207.10938800398893 191.55844122715712" height="191.55844122715712" width="207.10938800398893"><g><svg viewBox="0 0 207.10938800398893 191.55844122715712" height="191.55844122715712" width="207.10938800398893"><g><svg viewBox="0 0 213.1584412271571 197.1532972474351" height="191.55844122715712" width="207.10938800398893"><g transform="matrix(1,0,0,1,0,119.06838351941767)"><svg viewBox="0 0 213.1584412271571 78.08491372801744" height="78.08491372801744" width="213.1584412271571"><g id="textblocktransform"><svg viewBox="0 0 213.1584412271571 78.08491372801744" height="78.08491372801744" width="213.1584412271571" id="textblock"><g><svg viewBox="0 0 213.1584412271571 47.25187120799048" height="47.25187120799048" width="213.1584412271571"><g transform="matrix(1,0,0,1,0,0)"><svg width="213.1584412271571" viewBox="1.75 -35.5 162.38999938964844 36" height="47.25187120799048" data-palette-color="#1ebbd7"><path d="M45.9-35.1L45.9-35.1Q46.35-35.1 46.65-34.88 46.95-34.65 46.95-34.15L46.95-34.15Q46.95-33.95 46.85-33.65L46.85-33.65 35.4-0.65Q35.3-0.35 35.02-0.18 34.75 0 34.5 0L34.5 0Q34.15 0 33.88-0.13 33.6-0.25 33.5-0.6L33.5-0.6 24.15-24.2 24.55-24.2 15.2-0.6Q15.05-0.25 14.78-0.13 14.5 0 14.15 0L14.15 0Q13.9 0 13.65-0.18 13.4-0.35 13.3-0.65L13.3-0.65 1.85-33.65Q1.75-33.95 1.75-34.1L1.75-34.1Q1.75-34.6 2.13-34.85 2.5-35.1 2.85-35.1L2.85-35.1Q3.15-35.1 3.43-34.93 3.7-34.75 3.8-34.45L3.8-34.45 14.55-3.4 14.2-3.35 23.4-26.6Q23.5-26.9 23.75-27.08 24-27.25 24.35-27.25L24.35-27.25Q24.65-27.25 24.93-27.08 25.2-26.9 25.3-26.6L25.3-26.6 34.6-3.2 34.15-3.15 44.9-34.45Q45-34.75 45.25-34.93 45.5-35.1 45.9-35.1ZM54.85-24.75L54.85-1Q54.85-0.6 54.55-0.3 54.25 0 53.85 0L53.85 0Q53.4 0 53.12-0.3 52.85-0.6 52.85-1L52.85-1 52.85-24.75Q52.85-25.15 53.15-25.45 53.45-25.75 53.85-25.75L53.85-25.75Q54.3-25.75 54.57-25.45 54.85-25.15 54.85-24.75L54.85-24.75ZM53.85-29.15L53.85-29.15Q53.05-29.15 52.57-29.6 52.1-30.05 52.1-30.75L52.1-30.75 52.1-31.15Q52.1-31.85 52.6-32.3 53.1-32.75 53.9-32.75L53.9-32.75Q54.6-32.75 55.07-32.3 55.55-31.85 55.55-31.15L55.55-31.15 55.55-30.75Q55.55-30.05 55.07-29.6 54.6-29.15 53.85-29.15ZM89.9-32.1L89.9-32.1Q90.3-31.8 90.34-31.43 90.4-31.05 90.15-30.65L90.15-30.65Q89.9-30.3 89.52-30.28 89.15-30.25 88.8-30.45L88.8-30.45Q86.7-31.9 84.22-32.75 81.75-33.6 78.95-33.6L78.95-33.6Q75.75-33.6 72.97-32.43 70.2-31.25 68.09-29.1 66-26.95 64.8-24 63.6-21.05 63.6-17.5L63.6-17.5Q63.6-13.95 64.8-11 66-8.05 68.09-5.9 70.2-3.75 72.97-2.58 75.75-1.4 78.95-1.4L78.95-1.4Q81.75-1.4 84.2-2.25 86.65-3.1 88.75-4.5L88.75-4.5Q89.09-4.75 89.5-4.7 89.9-4.65 90.15-4.3L90.15-4.3Q90.4-3.95 90.34-3.55 90.3-3.15 89.95-2.9L89.95-2.9Q88.75-2.05 86.92-1.25 85.09-0.45 83.05 0.03 81 0.5 78.95 0.5L78.95 0.5Q75.34 0.5 72.2-0.85 69.05-2.2 66.65-4.63 64.25-7.05 62.87-10.33 61.5-13.6 61.5-17.5L61.5-17.5Q61.5-21.4 62.87-24.68 64.25-27.95 66.65-30.38 69.05-32.8 72.2-34.15 75.34-35.5 78.95-35.5L78.95-35.5Q82-35.5 84.82-34.6 87.65-33.7 89.9-32.1ZM116.69-24.95L116.69-24.95Q117.14-24.95 117.42-24.65 117.69-24.35 117.69-23.95L117.69-23.95 117.69-1Q117.69-0.6 117.39-0.3 117.09 0 116.69 0L116.69 0Q116.24 0 115.97-0.3 115.69-0.6 115.69-1L115.69-1 115.69-8.1 116.49-8.75Q116.49-7.15 115.69-5.5 114.89-3.85 113.49-2.5 112.09-1.15 110.19-0.33 108.29 0.5 106.09 0.5L106.09 0.5Q102.74 0.5 100.12-1.25 97.49-3 95.99-6 94.49-9 94.49-12.75L94.49-12.75Q94.49-16.55 96.02-19.48 97.54-22.4 100.17-24.08 102.79-25.75 106.09-25.75L106.09-25.75Q108.24-25.75 110.14-24.98 112.04-24.2 113.47-22.8 114.89-21.4 115.69-19.53 116.49-17.65 116.49-15.45L116.49-15.45 115.69-16.7 115.69-23.95Q115.69-24.35 115.97-24.65 116.24-24.95 116.69-24.95ZM106.19-1.4L106.19-1.4Q108.99-1.4 111.19-2.88 113.39-4.35 114.64-6.93 115.89-9.5 115.89-12.75L115.89-12.75Q115.89-15.85 114.64-18.38 113.39-20.9 111.19-22.38 108.99-23.85 106.19-23.85L106.19-23.85Q103.44-23.85 101.24-22.43 99.04-21 97.77-18.5 96.49-16 96.49-12.75L96.49-12.75Q96.49-9.5 97.74-6.93 98.99-4.35 101.19-2.88 103.39-1.4 106.19-1.4ZM126.99 0L126.99 0Q126.54 0 126.27-0.3 125.99-0.6 125.99-1L125.99-1 125.99-23.95Q125.99-24.35 126.29-24.65 126.59-24.95 126.99-24.95L126.99-24.95Q127.44-24.95 127.72-24.65 127.99-24.35 127.99-23.95L127.99-23.95 127.99-15.5 127.14-14.2Q127.14-16.15 127.81-18.15 128.49-20.15 129.79-21.88 131.09-23.6 132.97-24.68 134.84-25.75 137.29-25.75L137.29-25.75Q137.99-25.75 138.79-25.55 139.59-25.35 139.59-24.6L139.59-24.6Q139.59-24.15 139.34-23.85 139.09-23.55 138.69-23.55L138.69-23.55Q138.39-23.55 137.97-23.78 137.54-24 136.74-24L136.74-24Q135.14-24 133.59-23.05 132.04-22.1 130.77-20.53 129.49-18.95 128.74-17.1 127.99-15.25 127.99-13.5L127.99-13.5 127.99-1Q127.99-0.6 127.69-0.3 127.39 0 126.99 0ZM154.34 0.5L154.34 0.5Q150.59 0.5 147.71-1.1 144.84-2.7 143.19-5.63 141.54-8.55 141.54-12.5L141.54-12.5Q141.54-16.7 143.16-19.65 144.79-22.6 147.36-24.18 149.94-25.75 152.84-25.75L152.84-25.75Q154.94-25.75 156.94-25.08 158.94-24.4 160.51-22.98 162.09-21.55 163.06-19.43 164.04-17.3 164.14-14.35L164.14-14.35Q164.14-13.95 163.84-13.63 163.54-13.3 163.14-13.3L163.14-13.3 142.74-13.3 142.44-15.2 162.59-15.2 162.09-14.75 162.09-15.65Q161.84-18.3 160.41-20.1 158.99-21.9 156.99-22.83 154.99-23.75 152.84-23.75L152.84-23.75Q151.34-23.75 149.69-23.08 148.04-22.4 146.64-21.03 145.24-19.65 144.36-17.55 143.49-15.45 143.49-12.65L143.49-12.65Q143.49-9.6 144.71-7.05 145.94-4.5 148.36-2.95 150.79-1.4 154.34-1.4L154.34-1.4Q156.04-1.4 157.54-1.98 159.04-2.55 160.24-3.5 161.44-4.45 162.19-5.55L162.19-5.55Q162.59-6 163.04-6L163.04-6Q163.39-6 163.64-5.73 163.89-5.45 163.89-5.1L163.89-5.1Q163.89-4.75 163.69-4.5L163.69-4.5Q162.14-2.5 159.71-1 157.29 0.5 154.34 0.5Z" opacity="1" transform="matrix(1,0,0,1,0,0)" fill="#1ebbd7" class="undefined-text-0" data-fill-palette-color="quaternary" id="text-0"></path></svg></g></svg></g><g transform="matrix(1,0,0,1,0,58.406903955288044)"><svg viewBox="0 0 213.1584412271571 19.678009772729393" height="19.678009772729393" width="213.1584412271571"><g transform="matrix(1,0,0,1,0,0)"><svg width="213.1584412271571" viewBox="2.8499999046325684 -37.099998474121094 532.8900146484375 49.19999694824219" height="19.678009772729393" data-palette-color="#1ebbd7"><path d="M10.95 0.6Q8.85 0.6 7.1 0.23 5.35-0.15 4.23-0.6 3.1-1.05 3.1-1.1L3.1-1.1 2.85-1.6Q2.9-1.9 3.05-3.1 3.2-4.3 3.33-6.23 3.45-8.15 3.45-10.3L3.45-10.3 5.7-10.55Q5.7-6.8 6.2-5 6.7-3.2 8.05-2.53 9.4-1.85 12.2-1.85L12.2-1.85Q15.35-1.85 17.25-3.33 19.15-4.8 19.15-7.35L19.15-7.35Q19.15-8.85 18.13-10.05 17.1-11.25 15.7-12.1 14.3-12.95 11.55-14.4L11.55-14.4Q8.95-15.75 7.3-16.88 5.65-18 4.53-19.55 3.4-21.1 3.4-23.15L3.4-23.15Q3.4-25.75 4.93-27.88 6.45-30 9.08-31.23 11.7-32.45 14.9-32.45L14.9-32.45Q16.9-32.45 18.6-32.18 20.3-31.9 21.3-31.6 22.3-31.3 22.55-31.2L22.55-31.2 22.7-30.9Q22.65-30.6 22.45-29.5 22.25-28.4 22-26.45 21.75-24.5 21.6-22.45L21.6-22.45 19.65-22.25 19.35-22.5Q19.4-22.7 19.45-23.43 19.5-24.15 19.5-25.1L19.5-25.1Q19.5-27.75 18.2-28.75 16.9-29.75 13.55-29.75L13.55-29.75Q10.8-29.75 9.03-28.38 7.25-27 7.25-24.95L7.25-24.95Q7.25-22.95 8.97-21.48 10.7-20 14.05-18.25L14.05-18.25Q17.3-16.6 19-15.53 20.7-14.45 22-12.85 23.3-11.25 23.3-9.15L23.3-9.15Q23.3-6.35 21.73-4.13 20.15-1.9 17.35-0.65 14.55 0.6 10.95 0.6L10.95 0.6ZM42.25-1.45Q43.75-1.85 44.4-2.63 45.05-3.4 45.05-4.7L45.05-4.7 45.25-14.6Q45.25-17.1 44.17-18.45 43.1-19.8 41.1-19.8L41.1-19.8Q39.5-19.8 37.85-18.98 36.2-18.15 34.95-17.2L34.95-17.2Q34.5-6.85 34.5-4.9L34.5-4.9Q34.5-3.35 34.9-2.73 35.3-2.1 36.3-2.1L36.3-2.1Q36.85-2.1 37.35-2.15 37.85-2.2 38.05-2.2L38.05-2.2 38.15-2 37.7 0.15Q37.25 0.1 35.95 0.05 34.65 0 33.15 0L33.15 0Q31.5 0 30.1 0.05 28.7 0.1 28.2 0.1L28.2 0.1 28.5-1.95Q29.95-2.1 30.52-2.7 31.1-3.3 31.1-4.7L31.1-4.7 31.1-16.9Q31.1-18.6 30.55-19.28 30-19.95 28.65-19.95L28.65-19.95 28.1-19.95 27.95-20.15 28.1-21.8Q30.25-22.15 32.37-22.63 34.5-23.1 35.1-23.25L35.1-23.25 35.4-22.85Q35.3-22.55 35.1-21.58 34.9-20.6 34.85-19.55L34.85-19.55 34.95-19.4Q40.55-23.2 42.3-23.2L42.3-23.2Q44.7-23.2 46.35-22.18 48-21.15 48.7-19.25L48.7-19.25Q50.5-20.55 52.75-21.88 55-23.2 56.25-23.2L56.25-23.2Q59.4-23.2 61.25-21.45 63.1-19.7 63.1-16.75L63.1-16.75Q63.1-16.25 62.8-12.15L62.8-12.15Q62.4-6.95 62.4-4.9L62.4-4.9Q62.4-3.35 62.8-2.73 63.2-2.1 64.2-2.1L64.2-2.1Q64.75-2.1 65.25-2.15 65.75-2.2 65.95-2.2L65.95-2.2 66.05-2 65.6 0.15Q65.15 0.1 63.85 0.05 62.55 0 61.05 0L61.05 0Q59.75 0 58.17 0.13 56.6 0.25 56.1 0.3L56.1 0.3 56.35-1.75Q57.8-2 58.4-2.65 59-3.3 59-4.7L59-4.7 59.2-14.6Q59.2-17.1 58.12-18.45 57.05-19.8 55.05-19.8L55.05-19.8Q52.45-19.8 49-17.3L49-17.3 48.45-4.9Q48.45-3.45 48.85-2.78 49.25-2.1 50.2-2.1L50.2-2.1Q50.75-2.1 51.25-2.15 51.75-2.2 51.95-2.2L51.95-2.2 52.05-2 51.65 0.15Q51.2 0.1 49.95 0.05 48.7 0 47.2 0L47.2 0Q45.9 0 44.22 0.25 42.55 0.5 42.05 0.6L42.05 0.6 42.25-1.45ZM86.19 0.6Q82.14 0.6 81.75-3.45L81.75-3.45 81.55-3.5Q79.75-1.7 78.27-0.65 76.8 0.4 76.05 0.4L76.05 0.4Q73.25 0.4 71.44-1.35 69.64-3.1 69.64-5.8L69.64-5.8Q69.64-7.25 70.37-8.35 71.09-9.45 72.3-9.8L72.3-9.8 81.8-12.4 81.84-14.6Q81.84-17.1 80.69-18.5 79.55-19.9 77.44-19.9L77.44-19.9Q76.05-19.9 74.5-19.25 72.94-18.6 71.44-17.4L71.44-17.4 71.19-17.55 70.59-19.7Q72.94-21.05 75.32-22.13 77.69-23.2 78.75-23.2L78.75-23.2Q82-23.2 83.84-21.5 85.69-19.8 85.69-16.75L85.69-16.75Q85.69-15.65 85.34-12.25L85.34-12.25Q84.8-6.75 84.8-5.25L84.8-5.25Q84.8-4.15 85.34-3.55 85.89-2.95 86.84-2.95L86.84-2.95Q87.64-2.95 88.5-3.33 89.34-3.7 89.84-4.2L89.84-4.2 90.55-3.4Q89.8-2.15 88.62-0.98 87.44 0.2 86.19 0.6L86.19 0.6ZM76.89-3Q77.84-3 79.12-3.68 80.39-4.35 81.44-5.4L81.44-5.4 81.69-10.5 74.89-8.45Q73.44-8 73.44-6.35L73.44-6.35Q73.44-4.9 74.42-3.95 75.39-3 76.89-3L76.89-3ZM92.24 0.6L92.44-1.45Q93.84-1.85 94.42-2.45 94.99-3.05 95.12-3.9 95.24-4.75 95.24-6.75L95.24-6.75 95.24-31.3Q95.24-32.85 94.89-33.4 94.54-33.95 93.44-33.95L93.44-33.95Q93.19-33.95 92.29-33.85L92.29-33.85 92.14-33.95 92.34-35.65Q96.54-36.25 99.74-37.1L99.74-37.1 100.04-36.45Q99.49-35.6 99.07-25.75 98.64-15.9 98.64-4.9L98.64-4.9Q98.64-3.4 99.04-2.75 99.44-2.1 100.39-2.1L100.39-2.1 102.14-2.2 102.24-2 101.84 0.15Q98.54 0 97.39 0L97.39 0Q95.69 0 92.24 0.6L92.24 0.6ZM104.44 0.6L104.64-1.45Q106.04-1.85 106.62-2.45 107.19-3.05 107.31-3.9 107.44-4.75 107.44-6.75L107.44-6.75 107.44-31.3Q107.44-32.85 107.09-33.4 106.74-33.95 105.64-33.95L105.64-33.95Q105.39-33.95 104.49-33.85L104.49-33.85 104.34-33.95 104.54-35.65Q108.74-36.25 111.94-37.1L111.94-37.1 112.24-36.45Q111.69-35.6 111.27-25.75 110.84-15.9 110.84-4.9L110.84-4.9Q110.84-3.4 111.24-2.75 111.64-2.1 112.59-2.1L112.59-2.1 114.34-2.2 114.44-2 114.04 0.15Q110.74 0 109.59 0L109.59 0Q107.89 0 104.44 0.6L104.44 0.6ZM141.79 0.5L141.64 0.15 141.84-1.8Q144.39-2 145.34-2.4 146.29-2.8 146.29-3.7L146.29-3.7Q146.29-4.7 145.84-6.1L145.84-6.1 144.19-11.55Q142.99-11.6 138.99-11.6L138.99-11.6Q136.59-11.6 133.54-11.2L133.54-11.2 131.69-6Q131.24-4.65 131.24-4.05L131.24-4.05Q131.24-2.95 131.94-2.48 132.64-2 134.24-2L134.24-2 137.09-2 137.19-1.8 136.89 0.35Q136.29 0.3 134.14 0.15 131.99 0 129.94 0L129.94 0Q128.09 0 126.51 0.05 124.94 0.1 124.44 0.15L124.44 0.15 124.84-2.2Q126.24-2.35 127.09-3.18 127.94-4 128.74-6.05L128.74-6.05 138.49-31.6 141.64-32.45 142.04-32.45Q142.34-31.25 143.56-26.9 144.79-22.55 146.56-16.6 148.34-10.65 149.99-5.65L149.99-5.65Q150.59-3.8 151.59-3.05 152.59-2.3 154.79-2.1L154.79-2.1 154.89-1.9 154.54 0.15Q153.94 0.15 152.36 0.08 150.79 0 149.24 0L149.24 0Q146.84 0 144.61 0.2 142.39 0.4 141.79 0.5L141.79 0.5ZM134.44-13.65L138.84-13.65Q140.64-13.65 143.49-13.9L143.49-13.9 139.54-27 139.19-27 134.44-13.65ZM165.88 0.6Q161.13 0.6 158.28-2.4 155.43-5.4 155.43-10.45L155.43-10.45Q155.43-14 156.96-16.93 158.48-19.85 161.11-21.53 163.73-23.2 166.98-23.2L166.98-23.2Q168.38-23.2 169.68-23 170.98-22.8 171.81-22.58 172.63-22.35 172.83-22.25L172.83-22.25 172.98-21.9Q172.93-21.65 172.71-20.73 172.48-19.8 172.23-18.28 171.98-16.75 171.93-15L171.93-15 169.88-14.85 169.88-16.4Q169.88-18.25 168.76-19.38 167.63-20.5 165.78-20.5L165.78-20.5Q162.73-20.5 161.08-18.32 159.43-16.15 159.43-12.15L159.43-12.15Q159.43-7.8 161.26-5.28 163.08-2.75 166.23-2.75L166.23-2.75Q167.48-2.75 168.73-3.13 169.98-3.5 170.83-3.88 171.68-4.25 171.88-4.4L171.88-4.4 172.18-4.3 172.73-2.75Q172.38-2.5 171.21-1.7 170.03-0.9 168.51-0.15 166.98 0.6 165.88 0.6L165.88 0.6ZM185.13 0.6Q181.73 0.6 180.33-0.78 178.93-2.15 178.93-5.45L178.93-5.45 178.93-17.75Q178.93-19.1 178.33-19.65 177.73-20.2 176.08-20.25L176.08-20.25 175.88-20.55 176.13-22.05Q177.58-22.75 178.96-23.78 180.33-24.8 181.21-25.58 182.08-26.35 182.33-26.6L182.33-26.6 183.33-26.2Q183.28-25.95 183.18-25 183.08-24.05 182.93-22.45L182.93-22.45 190.28-22.6 190.43-22.45 189.98-19.8 182.73-19.95Q182.38-14.45 182.38-7.45L182.38-7.45Q182.38-4.9 183.26-3.85 184.13-2.8 186.28-2.8L186.28-2.8Q187.03-2.8 187.78-3 188.53-3.2 189.03-3.43 189.53-3.65 189.68-3.7L189.68-3.7 190.18-2.4Q189.88-2.15 188.91-1.45 187.93-0.75 186.81-0.08 185.68 0.6 185.13 0.6L185.13 0.6ZM193.53 0.6L193.73-1.45Q195.23-1.85 195.88-2.63 196.53-3.4 196.53-4.7L196.53-4.7 196.53-17.4Q196.53-20.1 194.68-20.1L194.68-20.1Q194.33-20.1 193.93-20.03 193.53-19.95 193.43-19.9L193.43-19.9 193.63-21.75Q195.73-22.05 197.95-22.55 200.18-23.05 200.83-23.2L200.83-23.2 201.08-22.6Q200.63-21.55 200.28-16.18 199.93-10.8 199.93-4.9L199.93-4.9Q199.93-3.45 200.33-2.78 200.73-2.1 201.68-2.1L201.68-2.1Q202.23-2.1 202.73-2.15 203.23-2.2 203.43-2.2L203.43-2.2 203.53-2 203.13 0.15Q202.68 0.1 201.43 0.05 200.18 0 198.68 0L198.68 0Q197.38 0 195.7 0.25 194.03 0.5 193.53 0.6L193.53 0.6ZM197.93-29.1Q196.78-29.1 196.13-29.85 195.48-30.6 195.48-31.65L195.48-31.65Q195.48-32.85 196.33-33.73 197.18-34.6 198.43-34.6L198.43-34.6Q199.58-34.6 200.23-33.85 200.88-33.1 200.88-32.05L200.88-32.05Q200.88-30.85 200.03-29.98 199.18-29.1 197.93-29.1L197.93-29.1ZM216.93 0.6Q214.08 0.6 211.88-0.8 209.68-2.2 208.45-4.73 207.23-7.25 207.23-10.5L207.23-10.5Q207.23-14 208.75-16.93 210.28-19.85 212.93-21.53 215.58-23.2 218.83-23.2L218.83-23.2Q221.63-23.2 223.85-21.8 226.08-20.4 227.3-17.88 228.53-15.35 228.53-12.1L228.53-12.1Q228.53-8.6 227-5.68 225.48-2.75 222.83-1.07 220.18 0.6 216.93 0.6L216.93 0.6ZM218.33-1.85Q221.13-1.85 222.78-4.13 224.43-6.4 224.43-10.3L224.43-10.3Q224.43-13.25 223.53-15.58 222.63-17.9 221-19.2 219.38-20.5 217.33-20.5L217.33-20.5Q214.53-20.5 212.88-18.2 211.23-15.9 211.23-11.95L211.23-11.95Q211.23-9 212.13-6.7 213.03-4.4 214.63-3.13 216.23-1.85 218.33-1.85L218.33-1.85ZM246.67-1.45Q248.17-1.85 248.82-2.63 249.47-3.4 249.47-4.7L249.47-4.7 249.67-14.6Q249.67-17.1 248.6-18.45 247.52-19.8 245.52-19.8L245.52-19.8Q243.92-19.8 242.27-18.98 240.62-18.15 239.37-17.2L239.37-17.2Q238.92-6.85 238.92-4.9L238.92-4.9Q238.92-3.35 239.32-2.73 239.72-2.1 240.72-2.1L240.72-2.1Q241.27-2.1 241.77-2.15 242.27-2.2 242.47-2.2L242.47-2.2 242.57-2 242.12 0.15Q241.67 0.1 240.37 0.05 239.07 0 237.57 0L237.57 0Q236.27 0 234.7 0.13 233.12 0.25 232.62 0.3L232.62 0.3 232.87-1.75Q234.32-2 234.92-2.65 235.52-3.3 235.52-4.7L235.52-4.7 235.52-16.9Q235.52-18.6 234.97-19.28 234.42-19.95 233.07-19.95L233.07-19.95 232.52-19.95 232.37-20.15 232.52-21.8Q234.67-22.15 236.8-22.63 238.92-23.1 239.52-23.25L239.52-23.25 239.82-22.85Q239.72-22.55 239.52-21.58 239.32-20.6 239.27-19.55L239.27-19.55 239.37-19.4Q245.07-23.2 246.72-23.2L246.72-23.2Q249.87-23.2 251.72-21.45 253.57-19.7 253.57-16.75L253.57-16.75Q253.57-16.25 253.27-12.15L253.27-12.15Q252.87-6.95 252.87-4.9L252.87-4.9Q252.87-3.45 253.27-2.78 253.67-2.1 254.62-2.1L254.62-2.1Q255.17-2.1 255.67-2.15 256.17-2.2 256.37-2.2L256.37-2.2 256.47-2 256.07 0.15Q255.62 0.1 254.37 0.05 253.12 0 251.62 0L251.62 0Q250.32 0 248.65 0.25 246.97 0.5 246.47 0.6L246.47 0.6 246.67-1.45ZM266.27 0.6Q264.67 0.6 263.35 0.38 262.02 0.15 261.27-0.1 260.52-0.35 260.32-0.45L260.32-0.45 260.17-0.8Q260.32-1.55 260.52-3.9 260.72-6.25 260.77-7.5L260.77-7.5 262.52-7.75Q262.52-4.45 263.62-3.1 264.72-1.75 267.37-1.75L267.37-1.75Q269.27-1.75 270.57-2.6 271.87-3.45 271.87-4.7L271.87-4.7Q271.87-5.95 270.7-6.98 269.52-8 266.07-9.85L266.07-9.85Q263.22-11.3 261.92-12.8 260.62-14.3 260.62-16.1L260.62-16.1Q260.62-18.1 261.82-19.73 263.02-21.35 265.12-22.28 267.22-23.2 269.82-23.2L269.82-23.2Q271.02-23.2 272.12-23.03 273.22-22.85 273.92-22.65 274.62-22.45 274.82-22.4L274.82-22.4 274.92-22.15Q274.82-21.65 274.47-19.88 274.12-18.1 273.97-16.05L273.97-16.05 272.12-15.9Q272.12-16.05 272.17-16.5 272.22-16.95 272.22-17.35L272.22-17.35Q272.22-19.15 271.25-19.98 270.27-20.8 268.12-20.8L268.12-20.8Q266.42-20.8 265.25-20 264.07-19.2 264.07-18.05L264.07-18.05Q264.07-16.85 265.1-15.8 266.12-14.75 268.42-13.55L268.42-13.55Q272.47-11.4 273.95-9.93 275.42-8.45 275.42-6.55L275.42-6.55Q275.42-4.65 274.17-3 272.92-1.35 270.8-0.38 268.67 0.6 266.27 0.6L266.27 0.6ZM280.87 7.85L279.97 7.1 279.97 6.6Q281.72 5.4 282.82 3.75 283.92 2.1 283.92 0.55L283.92 0.55Q283.92-0.45 283.47-1.38 283.02-2.3 282.32-2.95L282.32-2.95 282.42-3.65Q284.12-4.95 285.32-4.95L285.32-4.95Q286.42-4.95 287.14-3.93 287.87-2.9 287.87-1.05L287.87-1.05Q287.87 1.55 285.77 3.88 283.67 6.2 280.87 7.85L280.87 7.85ZM309.01 0Q307.46 0 305.66 0.25 303.86 0.5 303.31 0.6L303.31 0.6 303.61-1.7Q305.91-2.15 306.71-3.03 307.51-3.9 307.51-6L307.51-6 307.56-27Q307.56-28.6 307.19-29.15 306.81-29.7 305.71-29.7L305.71-29.7Q305.21-29.7 304.71-29.65 304.21-29.6 304.01-29.6L304.01-29.6 303.91-29.8 304.26-32Q304.86-31.95 306.51-31.9 308.16-31.85 309.81-31.85L309.81-31.85Q311.51-31.85 313.29-31.93 315.06-32 315.71-32.05L315.71-32.05Q320.46-32.05 323.01-30.08 325.56-28.1 325.56-24.45L325.56-24.45Q325.56-21.95 324.04-19.95 322.51-17.95 319.76-16.75L319.76-16.75Q323.41-15.95 325.46-13.95 327.51-11.95 327.51-9.15L327.51-9.15Q327.51-6.6 325.89-4.38 324.26-2.15 321.56-0.83 318.86 0.5 315.76 0.5L315.76 0.5Q314.41 0.5 312.66 0.25L312.66 0.25Q309.81 0 309.01 0L309.01 0ZM311.36-17.55Q312.11-17.5 313.89-17.35 315.66-17.2 316.81-17.15L316.81-17.15Q316.81-17 318.11-17.68 319.41-18.35 320.46-19.78 321.51-21.2 321.51-23.6L321.51-23.6Q321.51-26.8 319.36-28.35 317.21-29.9 312.71-29.9L312.71-29.9Q312.21-29.9 312.04-29.68 311.86-29.45 311.81-28.75L311.81-28.75Q311.51-23.95 311.36-17.55L311.36-17.55ZM311.26-14.9L311.06-5.55Q311.06-3.65 312.36-2.85 313.66-2.05 316.76-2.05L316.76-2.05Q319.76-2.05 321.49-3.73 323.21-5.4 323.21-8.25L323.21-8.25Q323.21-10.95 321.51-12.68 319.81-14.4 316.46-15L316.46-15 311.26-14.9ZM331.96 0.6L332.16-1.45Q333.66-1.85 334.31-2.63 334.96-3.4 334.96-4.7L334.96-4.7 334.96-17.4Q334.96-20.1 333.11-20.1L333.11-20.1Q332.76-20.1 332.36-20.03 331.96-19.95 331.86-19.9L331.86-19.9 332.06-21.75Q334.16-22.05 336.39-22.55 338.61-23.05 339.26-23.2L339.26-23.2 339.51-22.6Q339.06-21.55 338.71-16.18 338.36-10.8 338.36-4.9L338.36-4.9Q338.36-3.45 338.76-2.78 339.16-2.1 340.11-2.1L340.11-2.1Q340.66-2.1 341.16-2.15 341.66-2.2 341.86-2.2L341.86-2.2 341.96-2 341.56 0.15Q341.11 0.1 339.86 0.05 338.61 0 337.11 0L337.11 0Q335.81 0 334.14 0.25 332.46 0.5 331.96 0.6L331.96 0.6ZM336.36-29.1Q335.21-29.1 334.56-29.85 333.91-30.6 333.91-31.65L333.91-31.65Q333.91-32.85 334.76-33.73 335.61-34.6 336.86-34.6L336.86-34.6Q338.01-34.6 338.66-33.85 339.31-33.1 339.31-32.05L339.31-32.05Q339.31-30.85 338.46-29.98 337.61-29.1 336.36-29.1L336.36-29.1ZM367.61-21.15Q366.66-21 363.31-20.7L363.31-20.7 363.11-20.45Q365.11-18.25 365.11-15.35L365.11-15.35Q365.11-12.95 363.78-10.9 362.46-8.85 360.21-7.68 357.96-6.5 355.26-6.5L355.26-6.5Q353.81-6.5 352.46-6.9L352.46-6.9Q351.31-6.25 350.81-5.7 350.31-5.15 350.31-4.6L350.31-4.6Q350.31-3.45 351.86-3 353.41-2.55 356.71-2.15L356.71-2.15Q359.96-1.75 361.96-1.33 363.96-0.9 365.41 0.2 366.86 1.3 366.86 3.25L366.86 3.25Q366.86 5.45 365.08 7.5 363.31 9.55 360.43 10.83 357.56 12.1 354.51 12.1L354.51 12.1Q350.96 12.1 348.93 10.33 346.91 8.55 346.91 5.45L346.91 5.45Q347.61 4.55 348.93 3.35 350.26 2.15 351.86 0.95L351.86 0.95 351.86 0.65Q349.26 0.2 347.86-1.05 346.46-2.3 346.41-4.25L346.41-4.25Q348.36-6.1 350.61-7.45L350.61-7.45 350.61-7.65Q348.86-8.65 347.88-10.33 346.91-12 346.91-14.1L346.91-14.1Q346.91-16.55 348.18-18.63 349.46-20.7 351.58-21.95 353.71-23.2 356.21-23.2L356.21-23.2Q357.36-23.2 359.06-22.9L359.06-22.9Q360.31-22.65 361.11-22.65L361.11-22.65Q363.36-22.9 368.01-24.15L368.01-24.15 368.16-23.95 367.61-21.15ZM356.41-8.7Q358.71-8.7 360.03-10.15 361.36-11.6 361.36-14.15L361.36-14.15Q361.36-17.05 359.76-18.85 358.16-20.65 355.61-20.65L355.61-20.65Q353.31-20.65 351.98-19.15 350.66-17.65 350.66-15.1L350.66-15.1Q350.66-12.25 352.26-10.48 353.86-8.7 356.41-8.7L356.41-8.7ZM354.01 1.05Q352.51 2.1 351.71 3.38 350.91 4.65 350.91 5.9L350.91 5.9Q350.91 7.6 352.36 8.63 353.81 9.65 356.21 9.65L356.21 9.65Q358.11 9.65 359.83 8.97 361.56 8.3 362.61 7.15 363.66 6 363.66 4.7L363.66 4.7Q363.66 3.7 362.91 3.1 362.16 2.5 360.13 2.05 358.11 1.6 354.01 1.05L354.01 1.05ZM381.6 0.6L381.9-1.7Q384.25-2.15 385.08-3.03 385.9-3.9 385.9-6L385.9-6 385.95-27Q385.95-28.6 385.58-29.15 385.2-29.7 384.1-29.7L384.1-29.7 382-29.6 381.9-29.8 382.25-32Q383.05-32 383.5-31.95L383.5-31.95 388.2-31.85Q390.45-31.85 393.95-32.3L393.95-32.3 393.75-30.05Q391.7-29.8 390.98-29.23 390.25-28.65 390.15-27.2L390.15-27.2Q389.85-21.35 389.65-14.98 389.45-8.6 389.45-5.6L389.45-5.6Q389.45-3.55 389.9-2.88 390.35-2.2 391.65-2.2L391.65-2.2Q392.5-2.2 394.3-2.35L394.3-2.35 394.4-2.15 393.95 0.15Q393.25 0.15 392.85 0.1L392.85 0.1Q389.35 0 387.4 0L387.4 0Q384.95 0 381.6 0.6L381.6 0.6ZM412.6-1.45Q414.1-1.85 414.75-2.63 415.4-3.4 415.4-4.7L415.4-4.7 415.6-14.6Q415.6-17.1 414.53-18.45 413.45-19.8 411.45-19.8L411.45-19.8Q409.85-19.8 408.2-18.98 406.55-18.15 405.3-17.2L405.3-17.2Q404.85-6.85 404.85-4.9L404.85-4.9Q404.85-3.35 405.25-2.73 405.65-2.1 406.65-2.1L406.65-2.1Q407.2-2.1 407.7-2.15 408.2-2.2 408.4-2.2L408.4-2.2 408.5-2 408.05 0.15Q407.6 0.1 406.3 0.05 405 0 403.5 0L403.5 0Q401.85 0 400.45 0.05 399.05 0.1 398.55 0.1L398.55 0.1 398.85-1.95Q400.3-2.1 400.88-2.7 401.45-3.3 401.45-4.7L401.45-4.7 401.45-16.9Q401.45-18.6 400.9-19.28 400.35-19.95 399-19.95L399-19.95 398.45-19.95 398.3-20.15 398.45-21.8Q400.6-22.15 402.73-22.63 404.85-23.1 405.45-23.25L405.45-23.25 405.75-22.85Q405.65-22.55 405.45-21.58 405.25-20.6 405.2-19.55L405.2-19.55 405.3-19.4Q410.9-23.2 412.65-23.2L412.65-23.2Q415.05-23.2 416.7-22.18 418.35-21.15 419.05-19.25L419.05-19.25Q420.85-20.55 423.1-21.88 425.35-23.2 426.6-23.2L426.6-23.2Q429.75-23.2 431.6-21.45 433.45-19.7 433.45-16.75L433.45-16.75Q433.45-16.25 433.15-12.15L433.15-12.15Q432.75-6.95 432.75-4.9L432.75-4.9Q432.75-3.35 433.15-2.73 433.55-2.1 434.55-2.1L434.55-2.1Q435.1-2.1 435.6-2.15 436.1-2.2 436.3-2.2L436.3-2.2 436.4-2 435.95 0.15Q435.5 0.1 434.2 0.05 432.9 0 431.4 0L431.4 0Q430.1 0 428.53 0.13 426.95 0.25 426.45 0.3L426.45 0.3 426.7-1.75Q428.15-2 428.75-2.65 429.35-3.3 429.35-4.7L429.35-4.7 429.55-14.6Q429.55-17.1 428.48-18.45 427.4-19.8 425.4-19.8L425.4-19.8Q422.8-19.8 419.35-17.3L419.35-17.3 418.8-4.9Q418.8-3.45 419.2-2.78 419.6-2.1 420.55-2.1L420.55-2.1Q421.1-2.1 421.6-2.15 422.1-2.2 422.3-2.2L422.3-2.2 422.4-2 422 0.15Q421.55 0.1 420.3 0.05 419.05 0 417.55 0L417.55 0Q416.25 0 414.58 0.25 412.9 0.5 412.4 0.6L412.4 0.6 412.6-1.45ZM440.2 11.85L440.45 9.9Q441.55 9.75 442.07 9.45 442.6 9.15 442.8 8.45 443 7.75 443 6.3L443 6.3Q443 4.2 443.05 2.7L443.05 2.7 443.1-2 443.1-16.9Q443.1-18.6 442.55-19.28 442-19.95 440.65-19.95L440.65-19.95 440.1-19.95 439.95-20.15 440.1-21.8Q442.25-22.15 444.37-22.63 446.5-23.1 447.1-23.25L447.1-23.25 447.4-22.85Q447.35-22.6 447.17-21.78 447-20.95 446.9-20.15L446.9-20.15 447.1-19.8Q451.8-23.05 452.9-23.05L452.9-23.05Q455.75-23.05 457.95-21.73 460.15-20.4 461.35-18 462.55-15.6 462.55-12.5L462.55-12.5Q462.55-8.95 460.85-5.95 459.15-2.95 456.3-1.18 453.45 0.6 450.1 0.6L450.1 0.6Q449 0.6 447.92 0.53 446.85 0.45 446.45 0.4L446.45 0.4 446.5 5.55Q446.5 7.85 446.97 8.68 447.45 9.5 448.85 9.5L448.85 9.5 450.55 9.45 450.65 9.6 450.25 11.5 445.5 11.5Q443.7 11.5 442.17 11.65 440.65 11.8 440.2 11.85L440.2 11.85ZM451.5-2.15Q454.85-2.15 456.77-4.42 458.7-6.7 458.7-10.65L458.7-10.65Q458.7-13.15 457.82-15.2 456.95-17.25 455.42-18.45 453.9-19.65 452.1-19.65L452.1-19.65Q451.1-19.65 449.65-18.98 448.2-18.3 446.9-17.2L446.9-17.2Q446.5-10.65 446.5-3.1L446.5-3.1Q447.5-2.7 448.87-2.43 450.25-2.15 451.5-2.15L451.5-2.15ZM482.95 0.6Q478.9 0.6 478.5-3.45L478.5-3.45 478.3-3.5Q476.5-1.7 475.02-0.65 473.55 0.4 472.8 0.4L472.8 0.4Q470 0.4 468.2-1.35 466.4-3.1 466.4-5.8L466.4-5.8Q466.4-7.25 467.12-8.35 467.85-9.45 469.05-9.8L469.05-9.8 478.55-12.4 478.6-14.6Q478.6-17.1 477.45-18.5 476.3-19.9 474.2-19.9L474.2-19.9Q472.8-19.9 471.25-19.25 469.7-18.6 468.2-17.4L468.2-17.4 467.95-17.55 467.35-19.7Q469.7-21.05 472.07-22.13 474.45-23.2 475.5-23.2L475.5-23.2Q478.75-23.2 480.6-21.5 482.45-19.8 482.45-16.75L482.45-16.75Q482.45-15.65 482.1-12.25L482.1-12.25Q481.55-6.75 481.55-5.25L481.55-5.25Q481.55-4.15 482.1-3.55 482.65-2.95 483.6-2.95L483.6-2.95Q484.4-2.95 485.25-3.33 486.1-3.7 486.6-4.2L486.6-4.2 487.3-3.4Q486.55-2.15 485.37-0.98 484.2 0.2 482.95 0.6L482.95 0.6ZM473.65-3Q474.6-3 475.87-3.68 477.15-4.35 478.2-5.4L478.2-5.4 478.45-10.5 471.65-8.45Q470.2-8 470.2-6.35L470.2-6.35Q470.2-4.9 471.17-3.95 472.15-3 473.65-3L473.65-3ZM499.89 0.6Q495.14 0.6 492.29-2.4 489.44-5.4 489.44-10.45L489.44-10.45Q489.44-14 490.97-16.93 492.49-19.85 495.12-21.53 497.74-23.2 500.99-23.2L500.99-23.2Q502.39-23.2 503.69-23 504.99-22.8 505.82-22.58 506.64-22.35 506.84-22.25L506.84-22.25 506.99-21.9Q506.94-21.65 506.72-20.73 506.49-19.8 506.24-18.28 505.99-16.75 505.94-15L505.94-15 503.89-14.85 503.89-16.4Q503.89-18.25 502.77-19.38 501.64-20.5 499.79-20.5L499.79-20.5Q496.74-20.5 495.09-18.32 493.44-16.15 493.44-12.15L493.44-12.15Q493.44-7.8 495.27-5.28 497.09-2.75 500.24-2.75L500.24-2.75Q501.49-2.75 502.74-3.13 503.99-3.5 504.84-3.88 505.69-4.25 505.89-4.4L505.89-4.4 506.19-4.3 506.74-2.75Q506.39-2.5 505.22-1.7 504.04-0.9 502.52-0.15 500.99 0.6 499.89 0.6L499.89 0.6ZM519.14 0.6Q515.74 0.6 514.34-0.78 512.94-2.15 512.94-5.45L512.94-5.45 512.94-17.75Q512.94-19.1 512.34-19.65 511.74-20.2 510.09-20.25L510.09-20.25 509.89-20.55 510.14-22.05Q511.59-22.75 512.97-23.78 514.34-24.8 515.22-25.58 516.09-26.35 516.34-26.6L516.34-26.6 517.34-26.2Q517.29-25.95 517.19-25 517.09-24.05 516.94-22.45L516.94-22.45 524.29-22.6 524.44-22.45 523.99-19.8 516.74-19.95Q516.39-14.45 516.39-7.45L516.39-7.45Q516.39-4.9 517.27-3.85 518.14-2.8 520.29-2.8L520.29-2.8Q521.04-2.8 521.79-3 522.54-3.2 523.04-3.43 523.54-3.65 523.69-3.7L523.69-3.7 524.19-2.4Q523.89-2.15 522.92-1.45 521.94-0.75 520.82-0.08 519.69 0.6 519.14 0.6L519.14 0.6ZM532.59 0.6Q531.24 0.6 530.51-0.23 529.79-1.05 529.79-2.25L529.79-2.25Q529.79-3.55 530.64-4.45 531.49-5.35 532.89-5.35L532.89-5.35Q534.24-5.35 534.99-4.53 535.74-3.7 535.74-2.5L535.74-2.5Q535.74-1.2 534.86-0.3 533.99 0.6 532.59 0.6L532.59 0.6ZM532.59-13.4Q531.24-13.4 530.51-14.23 529.79-15.05 529.79-16.25L529.79-16.25Q529.79-17.55 530.64-18.45 531.49-19.35 532.89-19.35L532.89-19.35Q534.24-19.35 534.99-18.53 535.74-17.7 535.74-16.5L535.74-16.5Q535.74-15.2 534.86-14.3 533.99-13.4 532.59-13.4L532.59-13.4Z" opacity="1" transform="matrix(1,0,0,1,0,0)" fill="#1ebbd7" class="undefined-text-1" data-fill-palette-color="quaternary" id="text-1"></path></svg></g></svg></g></svg></g></svg></g><g transform="matrix(1,0,0,1,40.95624380166201,0)"><svg viewBox="0 0 131.2459536238331 107.91335077212011" height="107.91335077212011" width="131.2459536238331"><g><svg xmlns="http://www.w3.org/2000/svg" xmlns:xlink="http://www.w3.org/1999/xlink" viewBox="5 13 90 74.00000762939453" version="1.1" xml:space="preserve" x="0" y="0" height="107.91335077212011" width="131.2459536238331" class="icon-icon-0" data-fill-palette-color="quaternary" id="icon-0"><g fill="#1ebbd7" data-fill-palette-color="quaternary"><path d="M47.212 68.011C47.239 68.019 24.6 61.074 24.6 61.074 20.322 59.95 16.128 62.467 16.128 62.467 16.128 62.467 7.227 67.299 6.987 67.439 5.215 68.474 5.008 69.534 5.008 72.329 5.008 72.512 5 82.355 5 82.355 5 85.257 6.433 85.894 8.649 84.942L14.189 82.143C16.994 80.541 20.08 81.427 20.08 81.427L40.265 86.784C43.136 87.546 45.771 86.043 45.771 86.043L72.613 70.736C72.522 70.788 77.046 68.118 74.691 64.147 72.06 59.711 67.515 62.125 67.515 62.125L51.685 71.022C51.925 73.219 50.993 75.409 49.373 76.478 47.436 77.755 44.971 77.192 44.326 77.021 38.705 75.65 33.041 74.04 27.396 72.606 27.074 72.521 26.685 72.475 26.442 72.524 25.392 72.587 24.237 73.246 23.412 73.539 23.005 73.772 22.663 73.341 22.584 73.207 22.114 72.402 23.114 72.099 23.317 71.982 24.471 71.323 25.382 70.713 27.086 70.993 33.206 72.154 39.428 74.251 45.615 75.656 50.479 76.94 51.976 69.264 47.212 68.011ZM31.832 51.773C31.832 56.843 35.952 60.954 41.035 60.954 46.118 60.954 50.238 56.843 50.238 51.773 50.238 46.703 46.118 42.593 41.035 42.593 35.952 42.593 31.832 46.703 31.832 51.773ZM72.769 38.242C72.769 38.242 74.832 37.246 74.843 37.222L93.193 29.832C94.53 29.009 94.907 28.141 95 26.374L95 15.438C94.773 13.246 93.483 12.76 91.571 13.519L86.766 15.22C83.921 16.187 81.218 15.675 81.218 15.675L58.288 13 55.901 13.21 40.834 18.193 38.96 19.299 28.062 31.143C26.675 32.799 27.565 35.992 29.621 37.257 31.677 38.523 33.984 37.765 35.508 36.084L43.268 27.703C43.886 26.979 44.666 26.657 44.666 26.657L53.407 24.341C61.815 22.553 65.472 30.144 65.472 30.144L49.55 33.229C47.22 33.857 45.787 36.261 46.349 38.597 46.349 38.597 47.83 42.627 51.587 41.69L70.386 38.629 72.769 38.242Z" fill="#1ebbd7" data-fill-palette-color="quaternary"></path></g></svg></g></svg></g><g></g></svg></g></svg></g></svg></g></svg></g><defs></defs></svg><rect width="334.2969054100327" height="334.2969054100327" fill="none" stroke="none" visibility="hidden"></rect></g></svg></g></svg>